<?xml version="1.0" standalone="no"?>
<!DOCTYPE svg PUBLIC "-//W3C//DTD SVG 20010904//EN"
 "http://www.w3.org/TR/2001/REC-SVG-20010904/DTD/svg10.dtd">
<svg version="1.0" xmlns="http://www.w3.org/2000/svg"
 width="260.000000pt" height="260.000000pt" viewBox="0 0 260.000000 260.000000"
 preserveAspectRatio="xMidYMid meet">
<metadata>
Created by potrace 1.11, written by Peter Selinger 2001-2013
</metadata>
<g transform="translate(0.000000,260.000000) scale(0.100000,-0.100000)"
fill="#000000" stroke="none">
<path d="M1083 1974 c-4 -12 24 -46 98 -119 99 -98 106 -102 143 -100 69 5 64
22 -47 133 -97 98 -103 102 -145 102 -30 0 -44 -5 -49 -16z"/>
<path d="M1293 1974 c-4 -11 24 -46 94 -116 87 -87 105 -100 137 -103 20 -1
44 4 54 11 15 12 7 23 -88 118 -101 102 -106 106 -148 106 -30 0 -44 -5 -49
-16z"/>
<path d="M864 1623 c-25 -9 -806 -793 -802 -805 3 -8 25 -14 59 -16 l54 -3
359 360 360 360 1 46 c2 45 -10 66 -31 58z"/>
<path d="M1008 1619 c-16 -9 -18 -34 -18 -284 0 -213 -3 -275 -12 -276 -7 0
-41 -2 -75 -2 -52 -2 -67 -6 -93 -29 -19 -16 -30 -35 -28 -45 3 -16 18 -18
150 -20 90 -1 150 2 154 8 3 6 6 92 6 192 -1 197 2 217 24 217 9 0 160 -144
336 -320 202 -202 327 -320 337 -318 14 3 16 37 19 321 1 198 6 318 12 319 6
0 14 1 19 2 5 1 142 -131 305 -291 l295 -293 44 0 c28 0 49 6 57 16 12 13 -42
70 -391 415 -233 230 -410 398 -419 397 -13 -3 -15 -47 -18 -320 -2 -286 -4
-317 -19 -322 -13 -5 -98 74 -342 318 -275 274 -329 324 -343 315z"/>
</g>
</svg>
